<svg width="20" height="20" viewBox="0 0 20 20" fill="none" xmlns="http://www.w3.org/2000/svg">
<path d="M3.5 9.5C3.5 6.67175 3.5 5.25725 4.379 4.379C5.258 3.50075 6.67175 3.5 9.5 3.5H11C13.8282 3.5 15.2427 3.5 16.121 4.379C16.9992 5.258 17 6.67175 17 9.5V11C17 13.8282 17 15.2427 16.121 16.121C15.242 16.9992 13.8282 17 11 17H9.5C6.67175 17 5.25725 17 4.379 16.121C3.50075 15.242 3.5 13.8282 3.5 11V9.5Z" stroke="white" stroke-opacity="0.7" stroke-width="0.9"/>
<path d="M13.625 8C14.2463 8 14.75 7.49632 14.75 6.875C14.75 6.25368 14.2463 5.75 13.625 5.75C13.0037 5.75 12.5 6.25368 12.5 6.875C12.5 7.49632 13.0037 8 13.625 8Z" fill="white" fill-opacity="0.7"/>
<path d="M10.25 12.5C11.4926 12.5 12.5 11.4926 12.5 10.25C12.5 9.00736 11.4926 8 10.25 8C9.00736 8 8 9.00736 8 10.25C8 11.4926 9.00736 12.5 10.25 12.5Z" stroke="white" stroke-opacity="0.7" stroke-width="0.9"/>
</svg>
